<mxfile host="app.diagrams.net" modified="2022-11-11T14:35:16.739Z" agent="5.0 (Macintosh; Intel Mac OS X 10_15_7) AppleWebKit/537.36 (KHTML, like Gecko) Chrome/108.0.0.0 Safari/537.36" etag="hV-Pj13g7uMz2KmXJLrv" version="20.5.3" type="github">
  <diagram id="SS3UAEaWAnvHdGek29RU" name="Seite-1">
    <mxGraphModel dx="1556" dy="1093" grid="1" gridSize="10" guides="1" tooltips="1" connect="1" arrows="1" fold="1" page="1" pageScale="1" pageWidth="827" pageHeight="1169" math="0" shadow="0">
      <root>
        <mxCell id="0" />
        <mxCell id="1" parent="0" />
        <mxCell id="QMNSNkGUf8iaxlY4FGQb-1" value="Push" style="shape=umlActor;verticalLabelPosition=bottom;verticalAlign=top;html=1;outlineConnect=0;" parent="1" vertex="1">
          <mxGeometry x="400" y="350" width="30" height="60" as="geometry" />
        </mxCell>
        <mxCell id="T_d_-E_xbomI_cvsi6iE-1" value="" style="ellipse;whiteSpace=wrap;html=1;aspect=fixed;" vertex="1" parent="1">
          <mxGeometry x="370" y="520" width="80" height="80" as="geometry" />
        </mxCell>
        <mxCell id="T_d_-E_xbomI_cvsi6iE-2" value="" style="ellipse;whiteSpace=wrap;html=1;aspect=fixed;" vertex="1" parent="1">
          <mxGeometry x="40" y="305" width="295" height="295" as="geometry" />
        </mxCell>
        <mxCell id="T_d_-E_xbomI_cvsi6iE-3" value="" style="ellipse;whiteSpace=wrap;html=1;aspect=fixed;" vertex="1" parent="1">
          <mxGeometry x="400" y="210" width="295" height="295" as="geometry" />
        </mxCell>
        <mxCell id="T_d_-E_xbomI_cvsi6iE-4" value="" style="ellipse;whiteSpace=wrap;html=1;aspect=fixed;" vertex="1" parent="1">
          <mxGeometry x="440" y="470" width="295" height="295" as="geometry" />
        </mxCell>
        <mxCell id="T_d_-E_xbomI_cvsi6iE-5" value="" style="ellipse;whiteSpace=wrap;html=1;aspect=fixed;" vertex="1" parent="1">
          <mxGeometry x="450" y="480" width="295" height="295" as="geometry" />
        </mxCell>
        <mxCell id="T_d_-E_xbomI_cvsi6iE-6" value="" style="ellipse;whiteSpace=wrap;html=1;aspect=fixed;" vertex="1" parent="1">
          <mxGeometry x="460" y="490" width="295" height="295" as="geometry" />
        </mxCell>
      </root>
    </mxGraphModel>
  </diagram>
</mxfile>
